# xmcd
#
# Track frame offsets:
#	150
#	20879
#	37572
#	56051
#	75689
#	92140
#	106142
#	129452
#	143857
#	161658
#	177930
#	195211
#	206952
#	213414
#	236008
#
# Disc length: 3304 seconds
#
# Revision: 1
# Processed by: cddbd v1.5.2PL0 Copyright (c) Steve Scherf et al.
# Submitted via: audiograbber 1.83.01
#
DISCID=cc0ce60f
DTITLE=Steven Bailey Band - Virginia Moonshine
DYEAR=2009
DGENRE=Country
TTITLE0=Do What I Do
TTITLE1=Chimney Fire
TTITLE2=The Devil Went Down To Georgia
TTITLE3=Sweet Virginia
TTITLE4=Machine Gun Fiddle
TTITLE5=Stumble In
TTITLE6=Golden Parachute
TTITLE7=Stop The Music Industry
TTITLE8=Big John Cottoneye
TTITLE9=Highway To Hell
TTITLE10=New York New York
TTITLE11=Checkity Spotted Bloomers
TTITLE12=The Bungalow Song
TTITLE13=Knockin On Ewigi Liebi
TTITLE14=Hoppel Song
EXTD=
EXTT0=
EXTT1=
EXTT2=
EXTT3=
EXTT4=
EXTT5=
EXTT6=
EXTT7=
EXTT8=
EXTT9=
EXTT10=
EXTT11=
EXTT12=
EXTT13=
EXTT14=
PLAYORDER=
